M48
; DRILL file {KiCad 5.1.6-c6e7f7d~87~ubuntu18.04.1} date Wed Mar 10 16:00:06 2021
; FORMAT={-:-/ absolute / inch / decimal}
; #@! TF.CreationDate,2021-03-10T16:00:06+02:00
; #@! TF.GenerationSoftware,Kicad,Pcbnew,5.1.6-c6e7f7d~87~ubuntu18.04.1
; #@! TF.FileFunction,NonPlated,1,4,NPTH
FMAT,2
INCH
T1C0.0236
T2C0.0276
T3C0.0394
T4C0.1260
T5C0.1299
T6C0.1299
%
G90
G05
T1
X7.3367Y-4.5091
X7.7933Y-4.5091
X4.2248Y-2.8963
X4.2248Y-3.0537
T2
X6.475Y-3.24
X6.875Y-3.24
X6.475Y-4.54
X6.875Y-4.54
X5.375Y-4.54
X6.275Y-4.54
X5.375Y-3.24
X6.275Y-3.24
T3
X7.005Y-2.282
X7.32Y-2.282
T4
X4.455Y-4.165
X4.455Y-4.615
T5
X4.45Y-3.375
X4.45Y-3.825
T6
X7.7Y-2.3
X7.075Y-3.24
X4.2Y-2.3
X5.175Y-4.54
X7.7Y-5.0
X7.075Y-4.54
X4.2Y-5.0
X5.175Y-3.24
T0
M30
