%TF.GenerationSoftware,KiCad,Pcbnew,5.1.6-c6e7f7d~87~ubuntu18.04.1*%
%TF.CreationDate,2021-03-10T15:58:37+02:00*%
%TF.ProjectId,RK3328-SOM-EVB_Rev_A,524b3333-3238-42d5-934f-4d2d4556425f,A*%
%TF.SameCoordinates,Original*%
%TF.FileFunction,Soldermask,Bot*%
%TF.FilePolarity,Negative*%
%FSLAX46Y46*%
G04 Gerber Fmt 4.6, Leading zero omitted, Abs format (unit mm)*
G04 Created by KiCad (PCBNEW 5.1.6-c6e7f7d~87~ubuntu18.04.1) date 2021-03-10 15:58:37*
%MOMM*%
%LPD*%
G01*
G04 APERTURE LIST*
%ADD10C,0.801600*%
%ADD11C,3.401601*%
%ADD12O,1.401600X2.801600*%
%ADD13O,1.401600X2.401600*%
%ADD14C,2.301600*%
%ADD15C,1.601600*%
%ADD16O,1.901600X1.301600*%
%ADD17C,0.701600*%
%ADD18C,1.801600*%
%ADD19R,1.801600X1.801600*%
%ADD20C,1.751600*%
%ADD21O,2.901600X2.101600*%
%ADD22C,3.401600*%
%ADD23C,1.511600*%
%ADD24C,2.801600*%
%ADD25C,3.301600*%
%ADD26C,1.101600*%
%ADD27O,1.601600X4.001600*%
%ADD28O,1.601600X3.701600*%
%ADD29O,3.801600X1.601600*%
%ADD30R,1.879600X1.879600*%
%ADD31C,1.879600*%
%ADD32O,1.901600X3.801600*%
G04 APERTURE END LIST*
D10*
%TO.C,GPIO3*%
X174625000Y-115316000D03*
X164465000Y-115316000D03*
%TD*%
%TO.C,GPIO2*%
X136525000Y-115316000D03*
X159385000Y-115316000D03*
%TD*%
%TO.C,GPIO1*%
X159385000Y-82296000D03*
X136525000Y-82296000D03*
%TD*%
%TO.C,GPIO4*%
X164465000Y-82296000D03*
X174625000Y-82296000D03*
%TD*%
D11*
%TO.C,MH1*%
X131445000Y-115316000D03*
%TD*%
%TO.C,MH2*%
X179705000Y-115316000D03*
%TD*%
%TO.C,MH3*%
X179705000Y-82296000D03*
%TD*%
%TO.C,MH4*%
X131445000Y-82296000D03*
%TD*%
D12*
%TO.C,HDMI1*%
X145095000Y-64290000D03*
X130495000Y-64290000D03*
D13*
X130495000Y-58240000D03*
X145095000Y-58240000D03*
%TD*%
D14*
%TO.C,USB-HOST1*%
X119690000Y-72921000D03*
X113990000Y-72921000D03*
X119690000Y-65921000D03*
X113990000Y-65921000D03*
D15*
X116840000Y-66421000D03*
X116840000Y-68421000D03*
X116840000Y-70421000D03*
X116840000Y-72421000D03*
%TD*%
D16*
%TO.C,USB-OTG1*%
X105160000Y-79165000D03*
X108630000Y-79165000D03*
X108630000Y-71965000D03*
X105160000Y-71965000D03*
D17*
X107310000Y-77565000D03*
X107310000Y-73565000D03*
%TD*%
D18*
%TO.C,EXT1*%
X139700000Y-125095000D03*
X139700000Y-127635000D03*
X134620000Y-127635000D03*
X134620000Y-125095000D03*
X137160000Y-127635000D03*
X137160000Y-125095000D03*
X132080000Y-125095000D03*
X132080000Y-127635000D03*
X129540000Y-125095000D03*
X129540000Y-127635000D03*
D19*
X116840000Y-127635000D03*
D18*
X116840000Y-125095000D03*
X119380000Y-127635000D03*
X119380000Y-125095000D03*
X121920000Y-127635000D03*
X121920000Y-125095000D03*
X124460000Y-127635000D03*
X124460000Y-125095000D03*
X127000000Y-127635000D03*
X127000000Y-125095000D03*
X142240000Y-125095000D03*
X142240000Y-127635000D03*
X144780000Y-127635000D03*
X144780000Y-125095000D03*
X147320000Y-125095000D03*
X147320000Y-127635000D03*
%TD*%
D17*
%TO.C,Flash_Con1*%
X197951000Y-114530000D03*
X186351000Y-114530000D03*
%TD*%
D20*
%TO.C,LAN1*%
X119380000Y-97155000D03*
X121920000Y-95885000D03*
X119380000Y-94615000D03*
X121920000Y-93345000D03*
X119380000Y-92075000D03*
X121920000Y-90805000D03*
X119380000Y-89535000D03*
X121920000Y-88265000D03*
X119380000Y-86995000D03*
X121920000Y-85725000D03*
X110490000Y-98171000D03*
X108458000Y-98171000D03*
X110490000Y-84709000D03*
X108458000Y-84709000D03*
D21*
X116230000Y-99340000D03*
X116230000Y-83540000D03*
D22*
X113030000Y-97155000D03*
X113030000Y-85725000D03*
%TD*%
D23*
%TO.C,LAN2*%
X119857000Y-107051000D03*
X122397000Y-108321000D03*
X119857000Y-109591000D03*
X122397000Y-110861000D03*
X119857000Y-112131000D03*
X122397000Y-113401000D03*
X119857000Y-114671000D03*
X122397000Y-115941000D03*
D20*
X108408500Y-115576000D03*
X108408500Y-104896000D03*
D24*
X116207000Y-103706000D03*
X116207000Y-119306000D03*
D20*
X108408500Y-118116000D03*
X108408500Y-107436000D03*
D25*
X113157000Y-105791000D03*
X113157000Y-117221000D03*
%TD*%
D26*
%TO.C,MICRO_SD1*%
X185928000Y-57962800D03*
X177927000Y-57962800D03*
%TD*%
D27*
%TO.C,PWR_J1*%
X186505000Y-80315000D03*
D28*
X192505000Y-80465000D03*
D29*
X189759000Y-75865000D03*
%TD*%
D30*
%TO.C,UART_DBG1*%
X196215000Y-64135000D03*
D31*
X196215000Y-66675000D03*
X196215000Y-69215000D03*
%TD*%
D19*
%TO.C,UEXT1*%
X157480000Y-127635000D03*
D18*
X157480000Y-125095000D03*
X160020000Y-127635000D03*
X160020000Y-125095000D03*
X162560000Y-127635000D03*
X162560000Y-125095000D03*
X165100000Y-127635000D03*
X165100000Y-125095000D03*
X167640000Y-127635000D03*
X167640000Y-125095000D03*
%TD*%
D32*
%TO.C,USB3.0_TYPE-A1*%
X167690000Y-66210000D03*
X154890000Y-66210000D03*
%TD*%
D11*
%TO.C,MH5*%
X106680000Y-127000000D03*
%TD*%
%TO.C,MH6*%
X106680000Y-58420000D03*
%TD*%
%TO.C,MH7*%
X195580000Y-58420000D03*
%TD*%
%TO.C,MH8*%
X195580000Y-127000000D03*
%TD*%
M02*
