M48
; DRILL file {KiCad 5.1.6-c6e7f7d~87~ubuntu18.04.1} date Wed Mar 10 16:00:06 2021
; FORMAT={-:-/ absolute / inch / decimal}
; #@! TF.CreationDate,2021-03-10T16:00:06+02:00
; #@! TF.GenerationSoftware,Kicad,Pcbnew,5.1.6-c6e7f7d~87~ubuntu18.04.1
; #@! TF.FileFunction,Plated,1,4,PTH
FMAT,2
INCH
T1C0.0157
T2C0.0236
T3C0.0315
T4C0.0354
T5C0.0394
T6C0.0433
T7C0.0472
T8C0.0591
T9C0.0709
%
G90
G05
T1
X4.33Y-2.555
X4.35Y-3.075
X4.415Y-3.045
X4.43Y-2.74
X4.4335Y-2.9235
X4.815Y-3.0982
X4.815Y-3.1318
X4.8331Y-3.9181
X4.8569Y-3.9419
X4.865Y-2.8626
X4.865Y-2.94
X4.865Y-2.975
X4.8931Y-3.9531
X4.895Y-3.16
X4.9169Y-3.9769
X4.945Y-4.8
X4.945Y-4.64
X4.955Y-2.975
X4.98Y-3.575
X4.98Y-3.625
X4.99Y-2.945
X5.01Y-4.165
X5.01Y-4.315
X5.01Y-4.615
X5.12Y-3.88
X5.165Y-3.545
X5.17Y-3.99
X5.17Y-4.05
X5.21Y-4.185
X5.22Y-3.76
X5.235Y-4.075
X5.24Y-4.31
X5.265Y-3.89
X5.265Y-3.99
X5.27Y-2.51
X5.2875Y-4.31
X5.315Y-2.775
X5.315Y-4.41
X5.315Y-4.455
X5.325Y-2.51
X5.33Y-3.56
X5.33Y-3.605
X5.33Y-3.675
X5.33Y-4.175
X5.35Y-4.41
X5.385Y-2.51
X5.4Y-4.41
X5.43Y-4.27
X5.431Y-4.1796
X5.435Y-2.775
X5.445Y-2.51
X5.445Y-3.685
X5.47Y-3.595
X5.505Y-2.675
X5.55Y-2.51
X5.5505Y-2.7753
X5.56Y-4.18
X5.575Y-4.32
X5.585Y-3.625
X5.585Y-3.705
X5.615Y-2.675
X5.6186Y-3.9589
X5.6211Y-3.7111
X5.6519Y-3.9548
X5.6524Y-2.6876
X5.655Y-4.065
X5.6727Y-4.035
X5.6735Y-3.9841
X5.6739Y-4.0989
X5.675Y-3.6256
X5.675Y-3.93
X5.68Y-2.64
X5.68Y-3.825
X5.68Y-3.895
X5.68Y-4.135
X5.73Y-2.64
X5.735Y-2.68
X5.745Y-4.16
X5.77Y-3.895
X5.77Y-4.135
X5.775Y-4.035
X5.78Y-2.64
X5.78Y-3.815
X5.78Y-4.8748
X5.815Y-4.85
X5.865Y-2.535
X5.9Y-4.935
X6.05Y-4.67
X6.05Y-4.845
X6.1Y-4.67
X6.1Y-5.075
X6.15Y-3.21
X6.2Y-3.21
X6.23Y-2.71
X6.2336Y-3.2097
X6.2627Y-2.935
X6.2628Y-2.7625
X6.28Y-3.0182
X6.28Y-3.0518
X6.2963Y-2.935
X6.3Y-3.08
X6.3Y-3.21
X6.3448Y-4.511
X6.3448Y-4.5716
X6.35Y-2.71
X6.36Y-2.9482
X6.36Y-2.9818
X6.4Y-3.5
X6.4002Y-3.5346
X6.4002Y-3.665
X6.4002Y-3.835
X6.42Y-4.34
X6.4331Y-3.0131
X6.435Y-2.8
X6.435Y-2.9
X6.45Y-3.215
X6.45Y-3.375
X6.45Y-4.41
X6.4569Y-3.0369
X6.46Y-4.34
X6.495Y-3.04
X6.5Y-3.215
X6.5Y-3.375
X6.5Y-4.41
X6.545Y-2.9
X6.55Y-3.215
X6.55Y-3.375
X6.6Y-3.375
X6.6325Y-4.5425
X6.635Y-4.4
X6.65Y-3.375
X6.675Y-4.88
X6.675Y-4.975
X6.6825Y-4.4025
X6.7Y-3.375
X6.7Y-4.515
X6.75Y-3.375
X6.75Y-4.515
X6.7825Y-4.2525
X6.8Y-3.1
X6.8Y-3.375
X6.8Y-4.515
X6.8Y-4.57
X6.8125Y-4.2725
X6.85Y-4.57
X6.88Y-3.1025
X6.895Y-4.74
X6.92Y-2.825
X6.92Y-4.715
X6.92Y-4.765
X6.945Y-4.645
X6.945Y-4.685
X6.95Y-2.87
X6.97Y-4.42
X6.985Y-2.78
X7.045Y-2.865
X7.22Y-4.615
X7.225Y-4.37
X7.25Y-2.6493
X7.255Y-4.42
X7.275Y-2.875
X7.3Y-4.495
X7.305Y-4.54
X7.32Y-2.79
X7.34Y-4.59
X7.34Y-4.64
X7.43Y-4.64
X7.48Y-2.88
X7.4883Y-4.6783
X7.49Y-4.64
X7.5267Y-4.7117
X7.535Y-2.735
X7.5383Y-4.6633
X7.57Y-4.74
X7.5702Y-2.7829
X7.5743Y-4.6991
X7.5788Y-4.3117
X7.615Y-4.73
X7.6183Y-4.765
X7.6216Y-4.2833
X7.66Y-4.76
X7.665Y-4.23
X7.7323Y-4.5723
X7.7658Y-4.5801
X7.77Y-4.28
X7.77Y-4.32
X7.775Y-4.14
X7.835Y-4.4
X7.835Y-4.505
X7.84Y-4.165
T2
X4.075Y-2.4
X4.075Y-2.5
X4.075Y-2.6
X4.075Y-2.7
X4.075Y-3.225
X4.075Y-3.7
X4.075Y-3.8
X4.075Y-3.9
X4.075Y-4.05
X4.075Y-4.15
X4.075Y-4.25
X4.075Y-4.335
X4.075Y-4.7
X4.075Y-4.85
X4.0751Y-4.41
X4.0751Y-4.485
X4.0751Y-4.6
X4.076Y-3.3
X4.076Y-3.4
X4.076Y-3.5
X4.076Y-3.599
X4.175Y-3.225
X4.175Y-3.7
X4.175Y-3.8
X4.175Y-3.9
X4.175Y-4.05
X4.175Y-4.15
X4.175Y-4.25
X4.175Y-4.335
X4.175Y-4.7
X4.1751Y-4.41
X4.1751Y-4.485
X4.1751Y-4.6
X4.176Y-3.3
X4.176Y-3.4
X4.176Y-3.5
X4.176Y-3.599
X4.18Y-2.605
X4.18Y-2.67
X4.25Y-3.225
X4.25Y-3.7
X4.251Y-3.5
X4.251Y-3.599
X4.275Y-4.335
X4.275Y-4.85
X4.2751Y-4.41
X4.2751Y-4.485
X4.325Y-2.15
X4.35Y-3.225
X4.37Y-2.925
X4.375Y-4.335
X4.375Y-4.85
X4.375Y-4.95
X4.375Y-5.05
X4.375Y-5.15
X4.3751Y-4.41
X4.3751Y-4.485
X4.425Y-2.2
X4.425Y-3.7
X4.426Y-3.5
X4.426Y-3.599
X4.45Y-3.225
X4.475Y-4.335
X4.475Y-4.85
X4.475Y-4.95
X4.475Y-5.05
X4.475Y-5.15
X4.4751Y-4.41
X4.4751Y-4.485
X4.5Y-3.7
X4.501Y-3.5
X4.501Y-3.599
X4.525Y-2.2
X4.575Y-3.225
X4.575Y-3.7
X4.575Y-3.8
X4.575Y-4.335
X4.575Y-5.15
X4.5751Y-4.41
X4.5751Y-4.485
X4.576Y-3.4
X4.576Y-3.5
X4.576Y-3.599
X4.625Y-2.2
X4.675Y-5.15
X4.725Y-2.2
X4.775Y-5.15
X4.825Y-2.2
X4.835Y-3.18
X4.835Y-3.29
X4.835Y-4.065
X4.875Y-2.15
X4.875Y-3.235
X4.875Y-4.01
X4.875Y-5.15
X4.925Y-2.2
X4.965Y-2.635
X4.965Y-2.715
X4.975Y-2.15
X4.975Y-5.15
X5.025Y-2.2
X5.03Y-2.33
X5.03Y-2.43
X5.075Y-2.15
X5.075Y-3.725
X5.075Y-5.15
X5.1Y-2.7
X5.1Y-2.8
X5.1Y-2.9
X5.1Y-3.0
X5.125Y-2.2
X5.175Y-2.15
X5.175Y-5.15
X5.2Y-2.7
X5.2Y-2.8
X5.2Y-2.9
X5.2Y-3.0
X5.225Y-2.2
X5.275Y-2.15
X5.275Y-5.15
X5.32Y-4.6
X5.32Y-4.64
X5.325Y-2.2
X5.34Y-3.215
X5.35Y-3.27
X5.35Y-4.57
X5.375Y-2.15
X5.375Y-5.15
X5.4Y-3.27
X5.4Y-4.57
X5.41Y-3.215
X5.425Y-2.2
X5.45Y-3.215
X5.45Y-3.27
X5.475Y-2.15
X5.475Y-5.15
X5.5Y-3.215
X5.5Y-3.27
X5.525Y-2.2
X5.5475Y-2.88
X5.575Y-2.15
X5.575Y-5.15
X5.625Y-2.2
X5.675Y-2.15
X5.675Y-5.15
X5.725Y-2.2
X5.735Y-3.55
X5.775Y-2.15
X5.775Y-5.15
X5.825Y-2.2
X5.855Y-2.88
X5.875Y-2.15
X5.875Y-5.15
X5.925Y-2.2
X5.94Y-3.86
X5.965Y-2.43
X5.975Y-2.15
X5.975Y-2.8
X5.975Y-2.9
X5.975Y-5.15
X5.99Y-3.52
X6.025Y-2.2
X6.075Y-2.15
X6.075Y-2.5
X6.075Y-2.7
X6.075Y-2.8
X6.075Y-2.9
X6.075Y-3.0
X6.075Y-5.15
X6.125Y-2.2
X6.175Y-2.15
X6.175Y-2.5
X6.175Y-5.15
X6.225Y-2.2
X6.275Y-2.15
X6.275Y-2.5
X6.275Y-5.15
X6.325Y-2.2
X6.375Y-2.15
X6.375Y-2.5
X6.375Y-5.15
X6.425Y-2.2
X6.475Y-2.15
X6.475Y-5.15
X6.525Y-2.2
X6.575Y-2.15
X6.575Y-2.15
X6.575Y-5.15
X6.585Y-3.075
X6.625Y-2.2
X6.625Y-2.2
X6.675Y-2.15
X6.675Y-5.15
X6.725Y-2.2
X6.735Y-2.43
X6.775Y-2.15
X6.775Y-4.1
X6.775Y-4.975
X6.775Y-5.075
X6.775Y-5.15
X6.825Y-2.2
X6.875Y-2.15
X6.875Y-2.5
X6.875Y-4.0
X6.875Y-4.1
X6.875Y-4.975
X6.875Y-5.075
X6.875Y-5.15
X6.925Y-2.2
X6.93Y-5.155
X6.975Y-2.15
X6.975Y-2.5
X6.975Y-3.4
X6.975Y-3.5
X6.975Y-3.6
X6.975Y-3.7
X6.975Y-3.8
X6.975Y-3.9
X6.975Y-4.0
X6.975Y-4.1
X6.975Y-4.975
X6.975Y-5.075
X7.02Y-5.155
X7.025Y-2.2
X7.075Y-2.15
X7.075Y-2.5
X7.075Y-3.0
X7.075Y-3.4
X7.075Y-3.5
X7.075Y-3.6
X7.075Y-3.7
X7.075Y-3.8
X7.075Y-3.9
X7.075Y-4.0
X7.075Y-4.1
X7.075Y-4.975
X7.075Y-5.075
X7.125Y-2.2
X7.175Y-2.15
X7.175Y-2.5
X7.175Y-3.0
X7.175Y-3.1
X7.175Y-3.4
X7.175Y-3.5
X7.175Y-3.6
X7.175Y-3.7
X7.175Y-3.8
X7.175Y-3.9
X7.175Y-4.0
X7.175Y-4.1
X7.175Y-4.975
X7.175Y-5.075
X7.225Y-2.2
X7.23Y-5.155
X7.275Y-2.15
X7.275Y-2.5
X7.275Y-3.0
X7.275Y-3.1
X7.275Y-3.2
X7.275Y-3.3
X7.275Y-3.4
X7.275Y-3.5
X7.275Y-3.6
X7.275Y-3.7
X7.275Y-3.8
X7.275Y-3.9
X7.275Y-4.0
X7.275Y-4.1
X7.275Y-4.975
X7.275Y-5.075
X7.32Y-5.155
X7.325Y-2.2
X7.33Y-4.395
X7.375Y-2.15
X7.375Y-2.5
X7.375Y-3.7
X7.375Y-3.8
X7.375Y-3.9
X7.375Y-4.0
X7.375Y-4.1
X7.375Y-4.975
X7.375Y-5.075
X7.425Y-2.2
X7.475Y-2.15
X7.475Y-3.1
X7.475Y-3.2
X7.475Y-3.3
X7.475Y-3.7
X7.475Y-3.8
X7.475Y-3.9
X7.475Y-4.0
X7.475Y-4.1
X7.48Y-5.155
X7.525Y-2.2
X7.575Y-2.15
X7.575Y-3.7
X7.575Y-3.8
X7.575Y-3.9
X7.575Y-4.0
X7.575Y-4.1
X7.575Y-5.15
X7.675Y-3.7
X7.675Y-3.8
X7.675Y-3.9
X7.675Y-4.0
X7.675Y-4.1
X7.745Y-3.38
X7.785Y-3.565
X7.8Y-4.845
X7.85Y-2.4
X7.85Y-2.5
X7.85Y-2.6
X7.85Y-2.7
X7.85Y-2.8
X7.85Y-2.9
X7.85Y-3.0
X7.85Y-3.1
X7.85Y-3.2
X7.85Y-3.3
X7.85Y-3.4
X7.85Y-3.5
X7.85Y-4.25
X7.85Y-4.35
X7.85Y-4.55
X7.85Y-4.65
X7.85Y-4.75
X7.85Y-4.85
X7.85Y-4.95
X7.85Y-5.05
X7.85Y-5.15
T4
X4.7188Y-4.2146
X4.7188Y-4.3146
X4.7188Y-4.4146
X4.7188Y-4.5146
X4.8188Y-4.2646
X4.8188Y-4.3646
X4.8188Y-4.4646
X4.8188Y-4.5646
T5
X7.725Y-2.525
X7.725Y-2.625
X7.725Y-2.725
X4.6Y-2.615
X4.6Y-2.6937
X4.6Y-2.7725
X4.6Y-2.8512
T6
X4.2681Y-4.1298
X4.2681Y-4.2298
X4.2681Y-4.5502
X4.2681Y-4.6502
X4.27Y-3.335
X4.27Y-3.865
X4.35Y-3.335
X4.35Y-3.865
X4.7Y-3.425
X4.7Y-3.525
X4.7Y-3.625
X4.7Y-3.725
X4.7Y-3.825
X4.8Y-3.375
X4.8Y-3.475
X4.8Y-3.575
X4.8Y-3.675
X4.8Y-3.775
X6.2Y-4.925
X6.2Y-5.025
X6.3Y-4.925
X6.3Y-5.025
X6.4Y-4.925
X6.4Y-5.025
X6.5Y-4.925
X6.5Y-5.025
X6.6Y-4.925
X6.6Y-5.025
X4.6Y-4.925
X4.6Y-5.025
X4.7Y-4.925
X4.7Y-5.025
X4.8Y-4.925
X4.8Y-5.025
X4.9Y-4.925
X4.9Y-5.025
X5.0Y-4.925
X5.0Y-5.025
X5.1Y-4.925
X5.1Y-5.025
X5.2Y-4.925
X5.2Y-5.025
X5.3Y-4.925
X5.3Y-5.025
X5.4Y-4.925
X5.4Y-5.025
X5.5Y-4.925
X5.5Y-5.025
X5.6Y-4.925
X5.6Y-5.025
X5.7Y-4.925
X5.7Y-5.025
X5.8Y-4.925
X5.8Y-5.025
T7
X5.45Y-3.94
T8
X4.4878Y-2.5953
X4.4878Y-2.8709
X4.7122Y-2.5953
X4.7122Y-2.8709
T9
X4.5751Y-4.0829
X4.5751Y-4.6971
T2
G00X6.098Y-2.6441
M15
G01X6.098Y-2.5693
M16
G05
G00X6.602Y-2.6441
M15
G01X6.602Y-2.5693
M16
G05
G00X7.3427Y-3.2093
M15
G01X7.3427Y-3.1148
M16
G05
G00X7.5141Y-2.9868
M15
G01X7.4275Y-2.9868
M16
G05
G00X7.5789Y-3.2093
M15
G01X7.5789Y-3.1266
M16
G05
G00X4.152Y-2.8333
M15
G01X4.1283Y-2.8333
M16
G05
G00X4.152Y-3.1167
M15
G01X4.1283Y-3.1167
M16
G05
G00X4.2886Y-2.8333
M15
G01X4.265Y-2.8333
M16
G05
G00X4.2886Y-3.1167
M15
G01X4.265Y-3.1167
M16
G05
T3
G00X5.1376Y-2.2732
M15
G01X5.1376Y-2.3126
M16
G05
G00X5.1376Y-2.5035
M15
G01X5.1376Y-2.5587
M16
G05
G00X5.7124Y-2.2732
M15
G01X5.7124Y-2.3126
M16
G05
G00X5.7124Y-2.5035
M15
G01X5.7124Y-2.5587
M16
G05
T5
G00X4.5602Y-3.289
M15
G01X4.5917Y-3.289
M16
G05
G00X4.5602Y-3.911
M15
G01X4.5917Y-3.911
M16
G05
T0
M30
